# xmcd
#
# Track frame offsets:
#	187
#	16370
#	24887
#	37010
#	49302
#	62775
#	83682
#	90825
#	98820
#	129220
#	152752
#	166692
#	180437
#	196887
#	208970
#	224912
#	242105
#
# Disc length: 3453 seconds
#
# Revision: 1
# Processed by: cddbd v1.5.1PL0 Copyright (c) Steve Scherf et al.
# Submitted via: CDex 1.50Beta5
#
DISCID=dc0d7b11
DTITLE=曲 - 乙女の祈り
DYEAR=1900
DGENRE=Classical
TTITLE0=乙女の祈り
TTITLE1=楽興の時第三番
TTITLE2=春に寄す
TTITLE3=春の歌
TTITLE4=ヴェニスの舟歌
TTITLE5=調子の良い鍛冶屋
TTITLE6=ブラームスのワルツ
TTITLE7=ブラームスの子守唄
TTITLE8=即興曲OP90-4
TTITLE9=月の光
TTITLE10=飛翔
TTITLE11=予言の鳥
TTITLE12=思い出
TTITLE13=ユーモレスク
TTITLE14=へ調のメロディ
TTITLE15=アルブムブラット
TTITLE16=主よ、人の望みよ喜びよ
EXTD=
EXTT0=
EXTT1=
EXTT2=
EXTT3=
EXTT4=
EXTT5=
EXTT6=
EXTT7=
EXTT8=
EXTT9=
EXTT10=
EXTT11=
EXTT12=
EXTT13=
EXTT14=
EXTT15=
EXTT16=
PLAYORDER=
